# xmcd CD database file
#
# Track frame offsets:
#	150
#	11535
#	26825
#	36885
#	49352
#	62550
#	77567
#	86037
#	102237
#	117117
#	130825
#	147575
#
# Disc length: 2167 seconds
#
# Revision: 2
# Processed by: cddbd v1.5.2PL0 Copyright (c) Steve Scherf et al.
# Submitted via: CDex 1.70beta3
#
DISCID=a008750c
DTITLE=TVサントラ - 高校教師〜禁断の愛と知らずに〜
DYEAR=1993
DGENRE=Soundtrack
TTITLE0=TVサントラ/ぼくたちの失敗
TTITLE1=森田童子/ぼくたちの失敗
TTITLE2=TVサントラ/男のくせに泣いてくれた
TTITLE3=森田童子/君と淋しい風になる
TTITLE4=TVサントラ/ぼくたちの失敗
TTITLE5=森田童子/男のくせに泣いてくれた
TTITLE6=TVサントラ/ぼくたちの失敗
TTITLE7=森田童子/ぼくが君の思い出になってあげよう
TTITLE8=TVサントラ/男のくせに泣いてくれた
TTITLE9=森田童子/君は変わっちゃったネ
TTITLE10=TVサントラ/ぼくたちの失敗
TTITLE11=森田童子/みんな夢でありました
EXTD=YEAR: 1993
EXTT0=
EXTT1=
EXTT2=
EXTT3=
EXTT4=
EXTT5=
EXTT6=
EXTT7=
EXTT8=
EXTT9=
EXTT10=
EXTT11=
PLAYORDER=
